<?xml version="1.0" encoding="UTF-8"?>
<svg width="149px" height="50px" viewBox="0 0 149 50" version="1.1" xmlns="http://www.w3.org/2000/svg" xmlns:xlink="http://www.w3.org/1999/xlink">
    <!-- Generator: Sketch 43.2 (39069) - http://www.bohemiancoding.com/sketch -->
    <title>KubeCon+CloudNativeCon</title>
    <desc>Created with Sketch.</desc>
    <defs></defs>
    <g id="Page-1" stroke="none" stroke-width="1" fill="none" fill-rule="evenodd">
        <g id="KubeCon+CloudNativeCon">
            <g id="Group">
                <path d="M4.97773762,49.5726786 C4.83149192,49.3352015 4.65911297,49.0780815 4.46034949,48.8020742 C4.26158601,48.5268223 4.04598669,48.250815 3.81229511,47.9750595 C3.5791061,47.699304 3.33687096,47.4338736 3.08584097,47.1787683 C2.83481099,46.9234112 2.58428357,46.6987775 2.3330023,46.5033562 L2.3330023,49.5726786 L0.702438175,49.5726786 L0.702438175,42.31288 L2.3330023,42.31288 L2.3330023,45.0573397 C2.7581702,44.6105907 3.18509707,44.1441987 3.61378291,43.6591712 C4.04221747,43.1736401 4.44125212,42.7251282 4.81063558,42.31288 L6.74449619,42.31288 C6.24972338,42.8991438 5.75294032,43.4650092 5.25515214,44.0097207 C4.75661011,44.5549359 4.23218611,45.1026694 3.68162885,45.6541804 C4.26032961,46.1361859 4.81943042,46.7091026 5.35943386,47.3729304 C5.8994373,48.0360027 6.41682542,48.7695879 6.91159823,49.5726786 L4.97773762,49.5726786 Z M12.1689049,49.3840568 C11.9038031,49.4611172 11.5625632,49.5326374 11.1444311,49.598869 C10.7262991,49.6651007 10.2873107,49.6983425 9.82746603,49.6983425 C9.36033416,49.6983425 8.97185333,49.6356364 8.66177225,49.5099725 C8.35194245,49.3840568 8.10593809,49.2077747 7.92501558,48.9806227 C7.74333922,48.7537225 7.61468321,48.4830037 7.53804243,48.1687179 C7.46165292,47.8549359 7.42320689,47.5089194 7.42320689,47.131424 L7.42320689,44.0621016 L8.98089945,44.0621016 L8.98089945,46.943054 C8.98089945,47.4462134 9.04698643,47.8093544 9.17916037,48.0327289 C9.3115856,48.2561035 9.55884636,48.3676648 9.92144523,48.3676648 C10.0327628,48.3676648 10.1516189,48.3626282 10.2770082,48.3520513 C10.4023976,48.3414744 10.5134639,48.3291346 10.6112123,48.3152839 L10.6112123,44.0621016 L12.1689049,44.0621016 L12.1689049,49.3840568 Z M17.2377505,46.7755861 C17.2377505,45.7692674 16.8686184,45.2671154 16.1296002,45.2671154 C15.9692827,45.2671154 15.8109755,45.2880174 15.654176,45.3298214 C15.4973765,45.3718773 15.3702282,45.4240064 15.272731,45.4869643 L15.272731,48.3258608 C15.3491206,48.3397115 15.446869,48.3520513 15.5654737,48.3626282 C15.6835759,48.3732051 15.8127345,48.3782418 15.9521956,48.3782418 C16.3768609,48.3782418 16.6977471,48.2319277 16.9141003,47.938544 C17.1296996,47.6449084 17.2377505,47.2575916 17.2377505,46.7755861 Z M18.826602,46.8176419 C18.826602,47.2575916 18.7617714,47.6554853 18.6333667,48.0118269 C18.5044594,48.3676648 18.3180087,48.6718773 18.0737633,48.9229533 C17.8300205,49.174533 17.5304932,49.3679396 17.1751815,49.5044322 C16.8196185,49.6409249 16.4155582,49.7086676 15.9624981,49.7086676 C15.7745397,49.7086676 15.5775352,49.7001053 15.3719871,49.6827289 C15.1664391,49.6651007 14.9641577,49.6421841 14.7656455,49.6147344 C14.5671333,49.5867811 14.3771646,49.5532875 14.1962421,49.5150092 C14.0150683,49.4764789 13.8544996,49.4364377 13.7150385,49.3946337 L13.7150385,41.6948855 L15.272731,41.4433059 L15.272731,44.1877656 C15.446869,44.110957 15.628294,44.0517766 15.8162524,44.0097207 C16.0042108,43.9679167 16.2064922,43.9472665 16.4225941,43.9472665 C16.8128339,43.9472665 17.1578431,44.015261 17.4571191,44.15125 C17.7568976,44.2877427 18.0079276,44.4814011 18.2097065,44.7324771 C18.4119879,44.9840568 18.5655207,45.2862546 18.6700538,45.6388187 C18.7743355,45.9916346 18.826602,46.3847436 18.826602,46.8176419 Z M19.8503219,46.859446 C19.8503219,46.3703892 19.9252037,45.9425275 20.0752186,45.5761126 C20.2249822,45.2091941 20.4217355,44.9039744 20.6657296,44.659446 C20.9094724,44.4151694 21.1904048,44.2295696 21.5070192,44.1041575 C21.8243875,43.9782418 22.150048,43.9155357 22.4847546,43.9155357 C23.264983,43.9155357 23.8816272,44.1547756 24.3346873,44.6332555 C24.7879987,45.1114835 25.0141519,45.8151007 25.0141519,46.7441071 C25.0141519,46.8345147 25.0108852,46.9339881 25.003598,47.0427793 C24.9968134,47.1510668 24.9900288,47.2470147 24.9827417,47.3308745 L21.4497271,47.3308745 C21.4844039,47.6522115 21.6346701,47.907065 21.8992693,48.0956868 C22.1641197,48.2843086 22.5194315,48.3782418 22.9654557,48.3782418 C23.2511625,48.3782418 23.5318437,48.3520513 23.8069967,48.2996703 C24.0818984,48.2472894 24.3070464,48.1825687 24.4811843,48.1060119 L24.6902503,49.3737317 C24.6065736,49.4157875 24.4950048,49.4573397 24.3555437,49.4991438 C24.2165851,49.5411996 24.061042,49.577967 23.8906733,49.609446 C23.7198021,49.6409249 23.5368693,49.6668636 23.3416238,49.6877656 C23.1466295,49.7086676 22.9513839,49.7192445 22.7563897,49.7192445 C22.2613656,49.7192445 21.8309208,49.6457097 21.4653065,49.4991438 C21.099441,49.3528297 20.7963958,49.1518681 20.5559196,48.896511 C20.3154435,48.6421612 20.1377876,48.3397115 20.0229521,47.9909249 C19.907614,47.6416346 19.8503219,47.264391 19.8503219,46.859446 Z M23.5087258,46.2621016 C23.5021925,46.1296383 23.4795772,46.0001969 23.4413824,45.874533 C23.4024338,45.7483654 23.3433827,45.6370559 23.263224,45.5393452 C23.1830653,45.4413828 23.0820502,45.3610485 22.9601788,45.2983425 C22.8380561,45.2353846 22.6867848,45.2041575 22.505611,45.2041575 C22.3314731,45.2041575 22.1812069,45.2338736 22.0560688,45.2933059 C21.9306794,45.3524863 21.8258952,45.4310577 21.7424698,45.5285165 C21.6587931,45.6267308 21.5944651,45.7403068 21.5489832,45.8694963 C21.5037526,45.9986859 21.4705835,46.1296383 21.4497271,46.2621016 L23.5087258,46.2621016 Z M29.7068295,49.7192445 C28.5293255,49.7192445 27.6320001,49.3908562 27.0151046,48.7348352 C26.3984603,48.0778068 26.0903895,47.1457784 26.0903895,45.937239 C26.0903895,45.3366209 26.1843687,44.8009753 26.3723271,44.3295467 C26.5605368,43.8581181 26.8183513,43.4602244 27.1460221,43.1348581 C27.4734416,42.8099954 27.8636814,42.5642079 28.3167415,42.3967399 C28.7698016,42.2287683 29.2610565,42.1451603 29.7905061,42.1451603 C30.0973206,42.1451603 30.3757402,42.1680769 30.6267702,42.2131548 C30.8778002,42.2587363 31.0969174,42.3111172 31.2853784,42.369794 C31.4735881,42.4297299 31.6301363,42.4909249 31.7555256,42.5538828 C31.8811663,42.6165888 31.9718788,42.6651923 32.027412,42.7001969 L31.5570134,44.0202976 C31.3343782,43.9011813 31.0743021,43.8004487 30.7785441,43.7165888 C30.4820322,43.6327289 30.1458178,43.5906731 29.7696498,43.5906731 C29.5186198,43.5906731 29.273118,43.6327289 29.0326418,43.7165888 C28.7919144,43.8004487 28.579833,43.9349267 28.3951413,44.1202747 C28.2101983,44.3048672 28.0621936,44.544359 27.950876,44.8374908 C27.8393071,45.1308745 27.7835227,45.4869643 27.7835227,45.9055082 C27.7835227,46.2411996 27.8199585,46.5539744 27.8933326,46.8438324 C27.9664554,47.1331868 28.0848089,47.3832555 28.2486443,47.5925275 C28.4122284,47.8020513 28.6268226,47.9682601 28.8916731,48.0901465 C29.1565235,48.2125366 29.4769071,48.2737317 29.8533265,48.2737317 C30.0902847,48.2737317 30.3028686,48.2593773 30.490827,48.2319277 C30.679288,48.2037225 30.84639,48.1707326 30.9926357,48.1319505 C31.1388814,48.0936722 31.2677887,48.0501053 31.3796089,48.00125 C31.4909265,47.951891 31.5921928,47.907065 31.6824028,47.8650092 L32.131945,49.174533 C31.9020226,49.3142995 31.5781211,49.4399634 31.1597378,49.5515247 C30.7416057,49.6633379 30.257638,49.7192445 29.7068295,49.7192445 Z M38.1732491,46.807065 C38.1732491,47.2399634 38.1106801,47.636598 37.9850395,47.9962134 C37.8593988,48.3553251 37.6784763,48.6630632 37.4417694,48.9176648 C37.2045599,49.173022 36.9208633,49.3699542 36.5896746,49.5099725 C36.2584859,49.649739 35.8875948,49.7192445 35.4762473,49.7192445 C35.0724383,49.7192445 34.7045626,49.649739 34.3736251,49.5099725 C34.0426877,49.3699542 33.7584886,49.173022 33.5217816,48.9176648 C33.2845721,48.6630632 33.0998804,48.3553251 32.9677065,47.9962134 C32.8352812,47.636598 32.7691943,47.2399634 32.7691943,46.807065 C32.7691943,46.3739148 32.8367889,45.9787912 32.9727321,45.6227015 C33.1086752,45.2671154 33.2968849,44.9631548 33.5371098,44.7118269 C33.7778373,44.4602473 34.063544,44.264826 34.3942302,44.1248077 C34.7256702,43.9850412 35.0862588,43.9155357 35.4762473,43.9155357 C35.873523,43.9155357 36.2376296,43.9850412 36.5688183,44.1248077 C36.8997557,44.264826 37.1837035,44.4602473 37.4206618,44.7118269 C37.65762,44.9631548 37.8423117,45.2671154 37.9744857,45.6227015 C38.1071622,45.9787912 38.1732491,46.3739148 38.1732491,46.807065 Z M36.5843977,46.807065 C36.5843977,46.3250595 36.4884083,45.9463049 36.2969319,45.6702976 C36.1052043,45.3945421 35.831559,45.2565385 35.4762473,45.2565385 C35.1209356,45.2565385 34.8457826,45.3945421 34.6507884,45.6702976 C34.4555428,45.9463049 34.3580457,46.3250595 34.3580457,46.807065 C34.3580457,47.2890705 34.4555428,47.6710989 34.6507884,47.9539057 C34.8457826,48.2369643 35.1209356,48.3782418 35.4762473,48.3782418 C35.831559,48.3782418 36.1052043,48.2369643 36.2969319,47.9539057 C36.4884083,47.6710989 36.5843977,47.2890705 36.5843977,46.807065 Z M39.4585528,44.2507234 C39.723152,44.1739148 40.0646432,44.1021429 40.4827752,44.0359112 C40.9011586,43.9696795 41.3396444,43.9366896 41.7997404,43.9366896 C42.2668722,43.9366896 42.6551018,43.997381 42.9654341,44.1202747 C43.2755152,44.2421612 43.5212683,44.4151694 43.7021908,44.6382921 C43.8833646,44.8616667 44.0122719,45.1273489 44.0889127,45.4345833 C44.1655535,45.7420696 44.2039995,46.0838049 44.2039995,46.4610485 L44.2039995,49.5726786 L42.6463069,49.5726786 L42.6463069,46.650174 C42.6463069,46.1467628 42.5804712,45.7904212 42.4477947,45.5808974 C42.3153695,45.3718773 42.0678575,45.2671154 41.7057612,45.2671154 C41.5941923,45.2671154 41.4758388,45.272152 41.3504495,45.2824771 C41.2248088,45.2933059 41.1134912,45.3056456 41.0159941,45.3194963 L41.0159941,49.5726786 L39.4585528,49.5726786 L39.4585528,44.2507234 Z" id="Fill-5" fill="#4D595A"></path>
                <path d="M37.2612489,23.5486882 C36.1113858,24.9936973 35.5841978,25.6560142 34.4343347,27.1010234 C33.1274208,28.7437202 32.0715369,30.0706204 30.7646231,31.7133173 C29.823826,32.8951625 29.1669768,32.9314263 27.6148124,32.9314263 L22.3544904,32.9314263 L17.064266,32.9314263 C15.0419543,32.9314263 14.9095291,32.925886 13.6749843,31.3743521 C12.4525009,29.8381799 11.4973808,28.6376992 10.2746462,27.1010234 C9.31877224,25.8997871 9.07352173,25.5917972 8.11764779,24.3905609 C6.63031399,22.5209638 6.38833013,21.8578915 8.6915742,21.33106 L15.8246955,19.6994437 C16.3707297,21.2187431 17.4346545,22.5066094 18.8242399,23.3311058 L18.5098871,24.0893704 C18.4641539,24.1994208 18.4101284,24.2570902 18.3136364,24.324581 C18.0776833,24.4882715 17.9467658,24.5794345 17.8176072,24.8483906 C17.619095,25.2606387 17.7924791,25.7569986 18.2038265,25.9556937 C18.6154252,26.1541369 19.1107006,25.9803732 19.3089615,25.568125 C19.37731,25.4258402 19.4177663,25.2800298 19.4227919,25.1213759 C19.425556,25.019636 19.4104791,24.920918 19.4044484,24.8199336 C19.3986689,24.7260005 19.4102278,24.6590133 19.455961,24.5759089 L19.8630367,23.8360279 C20.6583419,24.1427587 21.5016418,24.2978869 22.3544904,24.2978869 C23.2158826,24.2978869 24.0672235,24.1394849 24.8698159,23.8264583 L25.2691018,24.5522367 C25.326394,24.656495 25.3379529,24.7350664 25.3301632,24.8529235 C25.3108145,25.1395078 25.2997581,25.299169 25.429168,25.568125 C25.6274289,25.9803732 26.1227043,26.1541369 26.534303,25.9556937 C26.9451479,25.7569986 27.1187832,25.2606387 26.9207736,24.8483906 C26.8521738,24.7058539 26.7642253,24.583212 26.6431078,24.4807166 C26.5659644,24.4147367 26.4792724,24.3648741 26.3966009,24.306701 C26.3197088,24.2523054 26.2747294,24.2024428 26.2385449,24.1145536 L25.9078588,23.3175069 C27.2868904,22.4920032 28.3412666,21.2101809 28.8842854,19.6991918 L36.7529069,21.4992834 C38.2804457,21.8485737 38.1683743,22.4091506 37.2612489,23.5486882 L37.2612489,23.5486882 Z M17.5246132,19.3106158 L19.9293749,18.760364 C20.0708463,19.0018704 20.2467432,19.2204602 20.4515374,19.4088301 C20.4296759,19.4589446 20.408317,19.5090591 20.3869581,19.5596772 L19.4951609,21.712081 C18.611656,21.1300984 17.9221402,20.2904922 17.5246132,19.3106158 L17.5246132,19.3106158 Z M24.7796059,18.760364 L27.1843676,19.3106158 C26.7901073,20.2819299 26.1093864,21.1154922 25.2364353,21.6974748 L24.2795562,19.3886836 C24.4745505,19.2045948 24.6434115,18.9933082 24.7796059,18.760364 L24.7796059,18.760364 Z M22.8284069,20.1132028 C22.6743715,20.1393933 22.5160643,20.1534959 22.3544904,20.1534959 C22.202214,20.1534959 22.0532042,20.1411561 21.9072098,20.1177358 C21.8798201,20.1696131 21.8521792,20.2212386 21.8235331,20.2726122 L20.707593,22.3013668 C21.2385503,22.4784043 21.7941332,22.5678045 22.3544904,22.5678045 C22.9233912,22.5678045 23.4875177,22.4756342 24.0257621,22.2930563 L22.9231399,20.2894849 C22.8912272,20.23106 22.8598171,20.1721314 22.8284069,20.1132028 L22.8284069,20.1132028 Z M24.4192686,4.2468109 C25.7178902,4.87361951 26.6662257,5.33144918 27.9648472,5.95775412 C29.779098,6.83337225 31.5928461,7.70873855 33.4070969,8.58460852 C33.8551314,10.5519162 34.3034171,12.5189721 34.7512004,14.4862798 C35.0178098,15.6580517 35.1620452,16.289897 35.4291572,17.4619208 C35.8455303,19.2927358 35.8045714,19.4516415 33.9199619,19.020506 L29.2662329,17.9560142 C29.2840739,17.7525343 29.29312,17.548299 29.29312,17.3440636 C29.29312,15.9463988 28.8792598,14.5928045 28.0950109,13.4379052 L28.7581422,12.8450939 C28.8468445,12.7657669 28.9207212,12.7370582 29.0370644,12.7186745 C29.3200071,12.6741003 29.4775604,12.6486653 29.7102469,12.4628136 C30.0670663,12.1777404 30.1258661,11.6541827 29.841667,11.2968338 C29.5577192,10.9397367 29.0348029,10.8808082 28.678486,11.1656296 C28.5551069,11.2640957 28.4555995,11.3776717 28.3822254,11.5184455 C28.3357384,11.6091049 28.3065898,11.7042972 28.2681437,11.7982303 C28.2324618,11.885364 28.1935132,11.9405151 28.1163698,11.9956662 L27.3630286,12.532571 C26.2639244,11.3837157 24.8155391,10.6503823 23.2477953,10.4481616 L23.2477953,5.12645833 C23.2477953,3.87838141 23.3583591,3.73483745 24.4192686,4.2468109 L24.4192686,4.2468109 Z M27.5620434,17.5664309 L25.1462253,17.0139125 C25.1158203,16.7462157 25.0479743,16.4898512 24.9479644,16.2508631 C24.9703284,16.2312202 24.9924411,16.2115774 25.0143026,16.1921864 L26.7918663,14.6026259 C27.3007109,15.4281296 27.5665664,16.3727495 27.5665664,17.3440636 C27.5665664,17.4181021 27.5650587,17.4923924 27.5620434,17.5664309 L27.5620434,17.5664309 Z M23.2477953,14.6658356 L23.2477953,12.1976351 C24.256187,12.3724061 25.1894457,12.8418201 25.935751,13.5492147 L23.9930956,14.9335325 C23.9662085,14.9529235 23.9385675,14.9725664 23.9119317,14.9922092 C23.7078913,14.8557166 23.4847536,14.7454144 23.2477953,14.6658356 L23.2477953,14.6658356 Z M9.23333661,17.8837386 C10.0899544,14.1226351 10.8106291,10.9576168 11.6672469,7.19600962 C12.0544714,5.49740614 12.3022347,5.06526328 13.8287684,4.18586767 C15.9488284,2.96473672 17.514562,2.06292811 19.7826267,0.756678114 C21.1933197,-0.0559821429 21.4611855,0.00546474359 21.4611855,1.73630266 L21.4611855,10.4481616 C19.8859033,10.6511378 18.4314873,11.3910188 17.3318805,12.5476809 L16.5785393,12.0112798 C16.4820473,11.9420261 16.4378218,11.8760462 16.3935963,11.7670032 C16.287053,11.5000618 16.2277506,11.3514812 15.9948129,11.1656296 C15.6382448,10.8808082 15.115831,10.9397367 14.8313806,11.2968338 C14.5474328,11.6541827 14.6064839,12.1777404 14.9628007,12.4628136 C15.0859286,12.5612798 15.2186051,12.6335554 15.3718866,12.6733448 C15.4703889,12.6987798 15.569645,12.705831 15.6691524,12.7224519 C15.7618752,12.7380655 15.8241929,12.7640041 15.8953055,12.8272138 L16.6004007,13.4577999 C15.8249468,14.6086699 15.4158609,15.9544574 15.4158609,17.3440636 C15.4158609,17.5938805 15.4296813,17.8429418 15.4563171,18.0912477 L13.9343065,18.4171177 C13.8403273,18.4105701 13.7418251,18.4183768 13.618446,18.4468338 C13.5400462,18.4647138 13.4666721,18.4939263 13.3993287,18.5319528 C12.4017421,18.7457578 11.3953606,18.9618292 10.3696305,19.1831891 C8.977281,19.4838759 8.93104525,19.2111424 9.23333661,17.8837386 L9.23333661,17.8837386 Z M21.4611855,12.1976351 L21.4611855,14.6658356 C21.2161863,14.7479327 20.9857614,14.8635234 20.7756902,15.0065636 C20.6970392,14.9476351 20.6181369,14.889462 20.5377269,14.8320444 L18.7579017,13.563821 C19.5062173,12.8483677 20.4452554,12.3736653 21.4611855,12.1976351 L21.4611855,12.1976351 Z M18.0512988,17.5354556 L17.1562349,17.7270994 C17.1469375,17.5996726 17.1421631,17.4722459 17.1421631,17.3440636 C17.1421631,16.3805563 17.4042495,15.4442468 17.9048018,14.6235279 L19.6577399,16.1909272 C19.6888988,16.2186287 19.7205602,16.2458265 19.7517191,16.2732761 C19.6456784,16.533418 19.5775812,16.812951 19.5537094,17.1050755 C19.4959148,17.1204373 19.4378688,17.1363027 19.3803254,17.1531754 L18.0512988,17.5354556 Z" id="Fill-7" fill="#0D717D"></path>
                <path d="M37.2612489,23.5486882 C36.1113858,24.9936973 35.5841978,25.6560142 34.4343347,27.1010234 C33.1274208,28.7437202 32.0715369,30.0706204 30.7646231,31.7133173 C29.823826,32.8951625 29.1669768,32.9314263 27.6148124,32.9314263 L22.3544904,32.9314263 L22.3544904,24.2978869 C23.2158826,24.2978869 24.0672235,24.1394849 24.8698159,23.8264583 L25.2691018,24.5522367 C25.326394,24.656495 25.3379529,24.7350664 25.3301632,24.8529235 C25.3108145,25.1395078 25.2997581,25.299169 25.429168,25.568125 C25.6274289,25.9803732 26.1227043,26.1541369 26.534303,25.9556937 C26.9451479,25.7569986 27.1187832,25.2606387 26.9207736,24.8483906 C26.8521738,24.7058539 26.7642253,24.583212 26.6431078,24.4807166 C26.5659644,24.4147367 26.4792724,24.3648741 26.3966009,24.306701 C26.3197088,24.2523054 26.2747294,24.2024428 26.2385449,24.1145536 L25.9078588,23.3175069 C27.2868904,22.4920032 28.3412666,21.2101809 28.8842854,19.6991918 L36.7529069,21.4992834 C38.2804457,21.8485737 38.1683743,22.4091506 37.2612489,23.5486882 M22.3544904,22.5678045 L22.3544904,20.1534959 C22.5160643,20.1534959 22.6743715,20.1393933 22.8284069,20.1132028 C22.8598171,20.1721314 22.8912272,20.23106 22.9231399,20.2894849 L24.0257621,22.2930563 C23.4875177,22.4756342 22.9233912,22.5678045 22.3544904,22.5678045 M24.7796059,18.760364 L27.1843676,19.3106158 C26.7901073,20.2819299 26.1093864,21.1154922 25.2364353,21.6974748 L24.2795562,19.3886836 C24.4745505,19.2045948 24.6434115,18.9933082 24.7796059,18.760364 M24.4192686,4.2468109 C25.7178902,4.87361951 26.6662257,5.33144918 27.9648472,5.95775412 C29.779098,6.83337225 31.5928461,7.70873855 33.4070969,8.58460852 C33.8551314,10.5519162 34.3034171,12.5189721 34.7512004,14.4862798 C35.0178098,15.6580517 35.1620452,16.289897 35.4291572,17.4619208 C35.8455303,19.2927358 35.8045714,19.4516415 33.9199619,19.020506 L29.2662329,17.9560142 C29.2840739,17.7525343 29.29312,17.548299 29.29312,17.3440636 C29.29312,15.9463988 28.8792598,14.5928045 28.0950109,13.4379052 L28.7581422,12.8450939 C28.8468445,12.7657669 28.9207212,12.7370582 29.0370644,12.7186745 C29.3200071,12.6741003 29.4775604,12.6486653 29.7102469,12.4628136 C30.0670663,12.1777404 30.1258661,11.6541827 29.841667,11.2968338 C29.5577192,10.9397367 29.0348029,10.8808082 28.678486,11.1656296 C28.5551069,11.2640957 28.4555995,11.3776717 28.3822254,11.5184455 C28.3357384,11.6091049 28.3065898,11.7042972 28.2681437,11.7982303 C28.2324618,11.885364 28.1935132,11.9405151 28.1163698,11.9956662 L27.3630286,12.532571 C26.2639244,11.3837157 24.8155391,10.6503823 23.2477953,10.4481616 L23.2477953,5.12645833 C23.2477953,3.87838141 23.3583591,3.73483745 24.4192686,4.2468109 M27.5620434,17.5664309 L25.1462253,17.0139125 C25.1158203,16.7462157 25.0479743,16.4898512 24.9479644,16.2508631 C24.9703284,16.2312202 24.9924411,16.2115774 25.0143026,16.1921864 L26.7918663,14.6026259 C27.3007109,15.4281296 27.5665664,16.3727495 27.5665664,17.3440636 C27.5665664,17.4181021 27.5650587,17.4923924 27.5620434,17.5664309 M23.2477953,14.6658356 L23.2477953,12.1976351 C24.256187,12.3724061 25.1894457,12.8418201 25.935751,13.5492147 L23.9930956,14.9335325 C23.9662085,14.9529235 23.9385675,14.9725664 23.9119317,14.9922092 C23.7078913,14.8557166 23.4847536,14.7454144 23.2477953,14.6658356" id="Fill-9" fill="#009FAD"></path>
                <polygon id="Fill-11" fill="#446CA9" points="95.5627993 23.2518544 91.3842432 23.2518544 91.3842432 33.0216575 101.131946 33.0216575 101.131946 28.8342033 95.5627993 28.8342033"></polygon>
                <polygon id="Fill-13" fill="#446CA9" points="116.450554 23.2830815 116.450554 28.8342033 110.911059 28.8342033 110.880654 28.8037317 110.880654 33.0216575 120.628106 33.0216575 120.628106 23.2518544 116.419144 23.2518544"></polygon>
                <polygon id="Fill-15" fill="#446CA9" points="91.3842683 13.4839148 95.593732 13.4839148 95.5625732 13.4519322 95.5625732 7.90181777 95.5625732 7.90055861 101.101566 7.90055861 101.131971 7.93178571 101.131971 3.71360806 91.3842683 3.71360806"></polygon>
                <polygon id="Fill-17" fill="#446CA9" points="110.880403 3.71363324 110.880403 7.90058379 116.450303 7.90058379 116.450303 13.48394 120.628357 13.48394 120.628357 3.71363324"></polygon>
                <polygon id="Fill-19" fill="#76C4D5" points="110.364849 13.4839148 104.793943 7.90055861 110.880729 7.90055861 110.880729 3.71360806 101.132021 3.71360806 101.132021 7.93178571 106.672271 13.4839148"></polygon>
                <polygon id="Fill-21" fill="#76C4D5" points="105.340681 23.2518544 101.648857 23.2518544 106.26414 27.8782509 107.219008 28.8342033 105.310527 28.8342033 101.13172 28.8342033 101.13172 33.0216575 110.880428 33.0216575 110.880428 28.8037317 108.110052 26.0272894"></polygon>
                <polygon id="Fill-23" fill="#76C4D5" points="116.450554 13.4839148 116.450554 17.6706136 116.450554 19.5827701 115.495937 18.6260623 110.880654 14.0009249 110.880654 17.7015888 113.649773 20.4765201 116.419144 23.2519551 120.628106 23.2519551 120.628106 13.4839148"></polygon>
                <polygon id="Fill-25" fill="#76C4D5" points="101.131971 19.0335508 95.5939833 13.48394 91.384017 13.48394 91.384017 23.2517285 95.5628244 23.2517285 95.5628244 17.1526213 101.131971 22.7342147"></polygon>
                <path d="M70.9974926,43.6770009 L69.9390959,44.9331364 C69.4666871,44.3564423 68.7678739,43.9963233 68.1308759,43.9963233 C66.9905615,43.9963233 66.1274104,44.9021612 66.1274104,46.0862729 C66.1274104,47.2912866 66.9905615,48.2074496 68.1308759,48.2074496 C68.7372176,48.2074496 69.4357795,47.878054 69.9390959,47.3633104 L71.0075438,48.4957967 C70.2371155,49.2883104 69.0968011,49.813631 68.0384044,49.813631 C65.8706009,49.813631 64.2576265,48.2175229 64.2576265,46.1066712 C64.2576265,44.0272985 65.9118111,42.4619139 68.1002196,42.4619139 C69.1686675,42.4619139 70.2783256,42.935609 70.9974926,43.6770009" id="Fill-27" fill="#221F1F"></path>
                <polygon id="Fill-29" fill="#221F1F" points="71.8815252 49.7314332 73.6585863 49.7314332 73.6585863 42.0916209 71.8815252 42.0916209"></polygon>
                <path d="M76.4538894,46.9717376 C76.4538894,47.8367788 76.9572057,48.413473 77.6969778,48.413473 C78.4266986,48.413473 78.930015,47.8367788 78.930015,46.9717376 C78.930015,46.1170215 78.4266986,45.5302541 77.6969778,45.5302541 C76.9572057,45.5302541 76.4538894,46.1170215 76.4538894,46.9717376 M80.7176299,46.9513393 C80.7176299,48.6605197 79.505449,49.793006 77.6969778,49.793006 C75.8784553,49.793006 74.6662744,48.6605197 74.6662744,46.9513393 C74.6662744,45.2421589 75.8784553,44.1197459 77.6969778,44.1197459 C79.505449,44.1197459 80.7176299,45.2421589 80.7176299,46.9513393" id="Fill-31" fill="#221F1F"></path>
                <path d="M87.0673315,49.7313072 L85.2902704,49.7313072 L85.2902704,48.8148924 C84.9098306,49.4741873 84.2934377,49.803331 83.4918504,49.803331 C82.2899721,49.803331 81.5094925,48.9795902 81.5094925,47.6821543 L81.5094925,44.1816964 L83.2865536,44.1816964 L83.2865536,47.1777358 C83.2865536,47.8367788 83.6463884,48.2381983 84.21152,48.2381983 C84.8892255,48.228125 85.2902704,47.672081 85.2902704,46.920364 L85.2902704,44.1816964 L87.0673315,44.1816964 L87.0673315,49.7313072 Z" id="Fill-32" fill="#221F1F"></path>
                <path d="M92.2870716,46.9717376 C92.2870716,46.1170215 91.7938065,45.5302541 91.054537,45.5302541 C90.3142624,45.5302541 89.8212486,46.1170215 89.810946,46.9717376 C89.8212486,47.8264538 90.3142624,48.4237981 91.054537,48.4237981 C91.7938065,48.4237981 92.2870716,47.8264538 92.2870716,46.9717376 L92.2870716,46.9717376 Z M94.0646353,49.7313072 L92.2870716,49.7313072 L92.2870716,49.0004922 C91.8965805,49.5152358 91.3317002,49.803331 90.6225845,49.803331 C89.0611227,49.803331 88.0336336,48.6501946 88.0336336,46.9306891 C88.0336336,45.2318338 89.0508202,44.1096726 90.5816257,44.1096726 C91.3110952,44.1096726 91.8965805,44.397516 92.2870716,44.9125114 L92.2870716,42.091495 L94.0646353,42.091495 L94.0646353,49.7313072 Z" id="Fill-33" fill="#221F1F"></path>
                <polygon id="Fill-34" fill="#446CA9" points="100.5688 49.7313072 97.2604304 45.2935325 97.2604304 49.7313072 95.5449332 49.7313072 95.5449332 42.5238897 97.1576564 42.5238897 100.476328 46.9717376 100.476328 42.5238897 102.181774 42.5238897 102.181774 49.7313072"></polygon>
                <path d="M106.764943,47.8472299 L106.764943,47.3526328 L105.644983,47.3526328 C105.110759,47.3526328 104.843647,47.5379808 104.843647,47.9499771 C104.843647,48.3516484 105.131112,48.6087683 105.624629,48.6087683 C106.179207,48.6087683 106.651867,48.3002747 106.764943,47.8472299 M108.511348,46.1070742 L108.511348,49.7309295 L106.774994,49.7309295 L106.774994,49.0930403 C106.415411,49.5664835 105.829926,49.8137821 105.079851,49.8137821 C103.898829,49.8137821 103.17916,49.0930403 103.17916,48.0731227 C103.17916,47.023489 103.929234,46.4052427 105.305753,46.3949176 L106.764943,46.3949176 L106.764943,46.3128205 C106.764943,45.7671016 106.405108,45.437706 105.685941,45.437706 C105.223584,45.437706 104.617745,45.6024038 104.032008,45.9008242 L103.528441,44.7272894 C104.391843,44.3256181 105.172323,44.0992216 106.097289,44.0992216 C107.617792,44.0992216 108.501046,44.8509386 108.511348,46.1070742" id="Fill-35" fill="#446CA9"></path>
                <path d="M113.299739,49.432484 C112.898694,49.6694574 112.354167,49.8137569 111.820195,49.8137569 C110.751495,49.8137569 109.981067,49.2063393 109.981067,48.0526992 L109.981067,45.6023787 L109.211141,45.6023787 L109.211141,44.4389171 L109.981067,44.4389171 L109.981067,42.8944345 L111.748328,42.8944345 L111.748328,44.428592 L113.196965,44.428592 L113.196965,45.6023787 L111.748328,45.6023787 L111.748328,47.7751809 C111.748328,48.2075755 111.933271,48.3926717 112.261947,48.3823466 C112.446639,48.3823466 112.683346,48.3103228 112.950206,48.1972505 L113.299739,49.432484 Z" id="Fill-36" fill="#446CA9"></path>
                <path d="M114.193772,49.7311813 L115.961285,49.7311813 L115.961285,44.1815705 L114.193772,44.1815705 L114.193772,49.7311813 Z M116.022849,42.5854625 C116.022849,43.1415064 115.632106,43.5326007 115.08758,43.5326007 C114.543305,43.5326007 114.152813,43.1415064 114.152813,42.5854625 C114.152813,42.0397436 114.543305,41.6486493 115.08758,41.6486493 C115.632106,41.6486493 116.022849,42.0397436 116.022849,42.5854625 L116.022849,42.5854625 Z" id="Fill-37" fill="#446CA9"></path>
                <polygon id="Fill-38" fill="#446CA9" points="118.714548 49.7313072 116.629165 44.1816964 118.45799 44.1816964 119.649817 48.1044757 120.851696 44.1816964 122.618705 44.1816964 120.53282 49.7313072"></polygon>
                <path d="M126.770023,46.4776442 C126.770023,45.7982028 126.338573,45.3554831 125.701323,45.3554831 C125.084931,45.3554831 124.663783,45.8085279 124.550958,46.4776442 L126.770023,46.4776442 Z M128.475217,47.4353594 L124.581614,47.4353594 C124.756255,48.0941506 125.228663,48.4648466 125.886266,48.4648466 C126.369229,48.4648466 126.841889,48.2691735 127.212026,47.8984776 L128.146793,48.8148924 C127.58141,49.4323832 126.749418,49.793006 125.732231,49.793006 C123.924514,49.793006 122.794251,48.6605197 122.794251,46.9717376 C122.794251,45.252484 123.965221,44.1197459 125.68097,44.1197459 C127.633425,44.1197459 128.598596,45.4066049 128.475217,47.4353594 L128.475217,47.4353594 Z" id="Fill-39" fill="#446CA9"></path>
                <path d="M135.719455,43.6770009 L134.661059,44.9331364 C134.18865,44.3564423 133.489837,43.9963233 132.853341,43.9963233 C131.712775,43.9963233 130.849373,44.9021612 130.849373,46.0862729 C130.849373,47.2912866 131.712775,48.2074496 132.853341,48.2074496 C133.45918,48.2074496 134.157742,47.878054 134.661059,47.3633104 L135.729506,48.4957967 C134.959581,49.2883104 133.819015,49.813631 132.760618,49.813631 C130.593066,49.813631 128.97984,48.2175229 128.97984,46.1066712 C128.97984,44.0272985 130.634025,42.4619139 132.822434,42.4619139 C133.890881,42.4619139 135.00054,42.935609 135.719455,43.6770009" id="Fill-40" fill="#221F1F"></path>
                <path d="M137.672061,46.9717376 C137.672061,47.8367788 138.175378,48.413473 138.91515,48.413473 C139.645122,48.413473 140.148187,47.8367788 140.148187,46.9717376 C140.148187,46.1170215 139.645122,45.5302541 138.91515,45.5302541 C138.175378,45.5302541 137.672061,46.1170215 137.672061,46.9717376 M141.936053,46.9513393 C141.936053,48.6605197 140.723872,49.793006 138.91515,49.793006 C137.096627,49.793006 135.884698,48.6605197 135.884698,46.9513393 C135.884698,45.2421589 137.096627,44.1197459 138.91515,44.1197459 C140.723872,44.1197459 141.936053,45.2421589 141.936053,46.9513393" id="Fill-41" fill="#221F1F"></path>
                <path d="M148.542665,46.2304968 L148.542665,49.7309547 L146.775906,49.7309547 L146.775906,46.7245902 C146.775906,46.0761241 146.395466,45.6744528 145.799679,45.6744528 C145.152629,45.6744528 144.741282,46.1378228 144.669415,46.796614 L144.669415,49.7309547 L142.892103,49.7309547 L142.892103,44.1815957 L144.669415,44.1815957 L144.669415,45.0876854 C145.059907,44.4389675 145.697156,44.1095719 146.518343,44.0992468 C147.74158,44.0992468 148.542665,44.9333127 148.542665,46.2304968" id="Fill-42" fill="#221F1F"></path>
                <path d="M55.0244782,0.213675214 L55.0244782,49.4200244" id="Path-2" stroke="#979797" stroke-width="0.503663004"></path>
            </g>
        </g>
    </g>
</svg>